<svg width="16" height="27" viewBox="0 0 16 27" fill="none" xmlns="http://www.w3.org/2000/svg">
<path d="M1.63195 10.863L10.809 1.32701C11.232 0.943493 11.7573 0.691091 12.3211 0.600472C12.8849 0.509853 13.4629 0.584916 13.9848 0.816542C14.5067 1.04817 14.9501 1.42639 15.2612 1.90525C15.5722 2.38411 15.7375 2.943 15.737 3.51401V23.296C15.7375 23.867 15.5722 24.4259 15.2612 24.9048C14.9501 25.3836 14.5067 25.7619 13.9848 25.9935C13.4629 26.2251 12.8849 26.3002 12.3211 26.2096C11.7573 26.1189 11.232 25.8665 10.809 25.483L1.63195 15.942C1.27835 15.6206 0.995816 15.2289 0.802482 14.7919C0.609147 14.3549 0.509277 13.8823 0.509277 13.4045C0.509277 12.9267 0.609147 12.4541 0.802482 12.0171C0.995816 11.5802 1.27835 11.1884 1.63195 10.867V10.863Z" fill="#2f58e2"/>
</svg>
