<svg width="16" height="27" viewBox="0 0 16 27" fill="none" xmlns="http://www.w3.org/2000/svg">
<path d="M14.21 16.115L5.03603 25.655C4.6126 26.0416 4.0857 26.2964 3.51976 26.3883C2.95382 26.4802 2.37336 26.4052 1.84938 26.1724C1.3254 25.9397 0.880607 25.5593 0.569391 25.0777C0.258175 24.5962 0.0940285 24.0344 0.0970252 23.461V3.68604C0.0969867 3.11502 0.262673 2.55627 0.573979 2.07757C0.885285 1.59887 1.32883 1.22081 1.85079 0.989264C2.37276 0.757715 2.95071 0.682629 3.51451 0.773118C4.07831 0.863607 4.60374 1.11578 5.02703 1.49904L14.21 11.036C14.5634 11.3576 14.8456 11.7494 15.0388 12.1864C15.232 12.6233 15.3317 13.0958 15.3317 13.5735C15.3317 14.0513 15.232 14.5238 15.0388 14.9607C14.8456 15.3977 14.5634 15.7895 14.21 16.111V16.115Z" fill="#2F58E2"/>
</svg>
