<svg width="26" height="27" viewBox="0 0 26 27" fill="none" xmlns="http://www.w3.org/2000/svg">
<path d="M6.51302 6.896C6.72567 6.896 6.93623 6.85408 7.13266 6.77265C7.3291 6.69121 7.50756 6.57185 7.65783 6.42139C7.8081 6.27093 7.92724 6.09233 8.00843 5.8958C8.08963 5.69926 8.13128 5.48865 8.13102 5.276V2.355C8.13102 2.14252 8.08917 1.93212 8.00786 1.73582C7.92655 1.53951 7.80736 1.36115 7.65712 1.2109C7.50687 1.06066 7.32851 0.941475 7.1322 0.860162C6.9359 0.77885 6.7255 0.737 6.51302 0.737C6.30054 0.737 6.09014 0.77885 5.89384 0.860162C5.69753 0.941475 5.51917 1.06066 5.36892 1.2109C5.21868 1.36115 5.0995 1.53951 5.01818 1.73582C4.93687 1.93212 4.89502 2.14252 4.89502 2.355V5.276C4.89476 5.48865 4.93641 5.69926 5.01761 5.8958C5.0988 6.09233 5.21794 6.27093 5.36821 6.42139C5.51849 6.57185 5.69694 6.69121 5.89338 6.77265C6.08981 6.85408 6.30037 6.896 6.51302 6.896Z" fill="white"/>
<path d="M19.357 6.896C19.5697 6.896 19.7802 6.85408 19.9767 6.77265C20.1731 6.69121 20.3515 6.57185 20.5018 6.42139C20.6521 6.27093 20.7712 6.09233 20.8524 5.8958C20.9336 5.69926 20.9753 5.48865 20.975 5.276V2.355C20.975 2.14252 20.9332 1.93212 20.8519 1.73582C20.7705 1.53951 20.6514 1.36115 20.5011 1.2109C20.3509 1.06066 20.1725 0.941475 19.9762 0.860162C19.7799 0.77885 19.5695 0.737 19.357 0.737C19.1445 0.737 18.9341 0.77885 18.7378 0.860162C18.5415 0.941475 18.3632 1.06066 18.2129 1.2109C18.0627 1.36115 17.9435 1.53951 17.8622 1.73582C17.7809 1.93212 17.739 2.14252 17.739 2.355V5.276C17.7388 5.48865 17.7804 5.69926 17.8616 5.8958C17.9428 6.09233 18.0619 6.27093 18.2122 6.42139C18.3625 6.57185 18.5409 6.69121 18.7374 6.77265C18.9338 6.85408 19.1444 6.896 19.357 6.896Z" fill="white"/>
<path d="M23.21 26.007H2.66104C1.97994 26.0062 1.32697 25.7353 0.845361 25.2537C0.363752 24.772 0.092835 24.1191 0.092041 23.438L0.092041 5.45798C0.093887 4.79945 0.348842 4.16684 0.804142 3.69106C1.25944 3.21529 1.88023 2.93277 2.53804 2.90198V5.80198C2.53846 6.35866 2.6557 6.90907 2.88216 7.41761C3.10862 7.92615 3.43927 8.38152 3.85274 8.75427C4.2662 9.12703 4.75329 9.40887 5.2825 9.58159C5.81172 9.75431 6.37129 9.81406 6.92504 9.75698C7.9302 9.61764 8.84906 9.11363 9.50677 8.34086C10.1645 7.56809 10.5151 6.58049 10.492 5.56598V3.54798C10.4923 3.37328 10.5618 3.20582 10.6853 3.08229C10.8089 2.95876 10.9763 2.88924 11.151 2.88898H14.721C14.8958 2.8895 15.0634 2.95904 15.1872 3.08245C15.3109 3.20587 15.381 3.37318 15.382 3.54798V5.79898C15.382 6.35592 15.499 6.90665 15.7252 7.41556C15.9515 7.92446 16.2821 8.38019 16.6956 8.75327C17.1091 9.12635 17.5964 9.40846 18.1258 9.58136C18.6552 9.75425 19.215 9.81409 19.769 9.75698C20.7731 9.61731 21.691 9.11391 22.3486 8.34229C23.0061 7.57067 23.3575 6.58452 23.336 5.57098V2.90198C23.9932 2.93423 24.6129 3.21726 25.0676 3.69278C25.5222 4.16829 25.7772 4.80007 25.78 5.45798V23.438C25.7792 24.1192 25.5082 24.7724 25.0264 25.254C24.5445 25.7356 23.8913 26.0064 23.21 26.007ZM5.87304 12.642C5.457 12.6422 5.05807 12.8076 4.76388 13.1018C4.4697 13.396 4.30431 13.7949 4.30404 14.211V20.301C4.30666 20.715 4.47228 21.1113 4.76502 21.404C5.05776 21.6967 5.45405 21.8624 5.86804 21.865H19.628C20.0422 21.8624 20.4386 21.6966 20.7314 21.4036C21.0242 21.1107 21.1897 20.7141 21.192 20.3V14.2C21.1897 13.7861 21.0241 13.3899 20.7312 13.0974C20.4384 12.8049 20.0419 12.6398 19.628 12.638L5.87304 12.642Z" fill="white"/>
</svg>
