<svg width="31" height="31" viewBox="0 0 31 31" fill="none" xmlns="http://www.w3.org/2000/svg">
<path d="M26.957 0.994996H5.04305C4.51194 0.994733 3.98599 1.09911 3.49524 1.30218C3.00449 1.50524 2.55856 1.803 2.18292 2.17846C1.80728 2.55391 1.5093 2.99969 1.30599 3.49034C1.10269 3.98099 0.998047 4.50689 0.998047 5.038L0.998047 26.952C0.998047 27.4831 1.10269 28.009 1.30599 28.4996C1.5093 28.9903 1.80728 29.4361 2.18292 29.8115C2.55856 30.187 3.00449 30.4848 3.49524 30.6878C3.98599 30.8909 4.51194 30.9953 5.04305 30.995H15.851L15.869 20.275H13.084C12.9101 20.275 12.7433 20.2061 12.6202 20.0833C12.497 19.9605 12.4276 19.7939 12.427 19.62L12.414 16.164C12.4137 16.0775 12.4304 15.9917 12.4632 15.9117C12.496 15.8316 12.5444 15.7588 12.6054 15.6975C12.6665 15.6362 12.739 15.5875 12.8189 15.5543C12.8988 15.5211 12.9845 15.504 13.071 15.504H15.851V12.166C15.851 8.291 18.218 6.181 21.674 6.181H24.51C24.6843 6.181 24.8514 6.25022 24.9746 6.37343C25.0978 6.49664 25.167 6.66375 25.167 6.838V9.752C25.167 9.92624 25.0978 10.0934 24.9746 10.2166C24.8514 10.3398 24.6843 10.409 24.51 10.409H22.77C20.89 10.409 20.526 11.302 20.526 12.609V15.505H24.657C24.75 15.5049 24.8418 15.5245 24.9266 15.5626C25.0114 15.6006 25.0871 15.6562 25.1489 15.7256C25.2106 15.7951 25.2568 15.8769 25.2846 15.9655C25.3124 16.0542 25.3211 16.1477 25.31 16.24L24.898 19.695C24.8792 19.8549 24.8023 20.0023 24.6819 20.1092C24.5615 20.2161 24.4061 20.2751 24.245 20.275H20.545L20.526 30.995H26.957C28.0289 30.9947 29.0567 30.5688 29.8145 29.8108C30.5723 29.0528 30.998 28.0248 30.998 26.953V5.038C30.998 3.96607 30.5724 2.93802 29.8146 2.17987C29.0568 1.42172 28.029 0.995526 26.957 0.994996V0.994996Z" fill="white"/>
</svg>
