<svg width="28" height="26" viewBox="0 0 28 26" fill="none" xmlns="http://www.w3.org/2000/svg">
<path d="M12.607 1.08005C12.6898 0.844013 12.8438 0.63952 13.0479 0.494845C13.2519 0.35017 13.4959 0.272461 13.746 0.272461C13.9961 0.272461 14.2401 0.35017 14.4441 0.494845C14.6482 0.63952 14.8022 0.844013 14.885 1.08005L17.291 8.36905C17.372 8.60613 17.5257 8.81168 17.7301 8.95653C17.9346 9.10138 18.1794 9.17818 18.43 9.17605H26.249C26.4973 9.16826 26.7416 9.24057 26.9457 9.38229C27.1498 9.52401 27.3029 9.72763 27.3824 9.96306C27.4619 10.1985 27.4636 10.4532 27.3871 10.6897C27.3107 10.9261 27.1602 11.1317 26.958 11.2761L20.607 15.8171C20.4065 15.958 20.2565 16.1596 20.1791 16.3922C20.1016 16.6248 20.1009 16.876 20.177 17.1091L22.597 24.4391C22.6682 24.6782 22.6623 24.9338 22.5801 25.1694C22.4979 25.405 22.3436 25.6088 22.1391 25.7518C21.9346 25.8948 21.6902 25.9697 21.4407 25.966C21.1912 25.9623 20.9492 25.8801 20.749 25.7311L14.455 21.2311C14.2479 21.0839 14.0001 21.0048 13.746 21.0048C13.4919 21.0048 13.2441 21.0839 13.037 21.2311L6.74298 25.7311C6.54277 25.8779 6.30157 25.9583 6.05329 25.961C5.805 25.9638 5.56211 25.8886 5.35874 25.7461C5.15538 25.6037 5.00176 25.4011 4.91947 25.1668C4.83718 24.9326 4.83037 24.6784 4.89998 24.4401L7.31998 17.1101C7.39604 16.877 7.39531 16.6258 7.31791 16.3932C7.2405 16.1606 7.09051 15.959 6.88998 15.8181L0.534981 11.2761C0.332723 11.1317 0.182261 10.9261 0.105827 10.6897C0.0293932 10.4532 0.0310405 10.1985 0.110526 9.96306C0.190012 9.72763 0.343119 9.52401 0.547227 9.38229C0.751335 9.24057 0.995617 9.16826 1.24398 9.17605H9.06298C9.31307 9.17783 9.55739 9.10098 9.76142 8.95635C9.96544 8.81171 10.1189 8.60662 10.2 8.37005L12.607 1.08005Z" fill="black"/>
</svg>
