<svg width="24" height="22" viewBox="0 0 24 22" fill="none" xmlns="http://www.w3.org/2000/svg">
<path d="M10.589 0.949961C10.6584 0.751812 10.7877 0.580135 10.959 0.458675C11.1303 0.337215 11.335 0.271973 11.545 0.271973C11.755 0.271973 11.9597 0.337215 12.131 0.458675C12.3023 0.580135 12.4316 0.751812 12.501 0.949961L14.521 7.06796C14.5888 7.26719 14.7176 7.43996 14.8893 7.56169C15.0609 7.68342 15.2666 7.74791 15.477 7.74596H22.04C22.2483 7.73967 22.4531 7.80048 22.6242 7.91942C22.7952 8.03836 22.9236 8.20912 22.9903 8.40654C23.0569 8.60396 23.0584 8.81757 22.9944 9.01588C22.9305 9.21419 22.8045 9.3867 22.635 9.50796L17.3 13.32C17.1318 13.4382 17.0059 13.6074 16.9409 13.8025C16.8759 13.9976 16.8753 14.2084 16.939 14.404L18.97 20.556C19.0277 20.7563 19.0213 20.9697 18.9517 21.1663C18.8821 21.3629 18.7528 21.5328 18.5819 21.6522C18.411 21.7717 18.207 21.8347 17.9985 21.8325C17.79 21.8303 17.5874 21.763 17.419 21.64L12.14 17.863C11.9662 17.7394 11.7583 17.673 11.545 17.673C11.3318 17.673 11.1238 17.7394 10.95 17.863L5.66701 21.641C5.49865 21.764 5.29605 21.8313 5.08754 21.8335C4.87903 21.8357 4.67505 21.7727 4.50413 21.6532C4.33322 21.5338 4.20392 21.3639 4.13433 21.1673C4.06474 20.9707 4.05833 20.7573 4.11601 20.557L6.14801 14.4C6.21175 14.2044 6.21108 13.9936 6.1461 13.7985C6.08112 13.6034 5.95525 13.4342 5.78701 13.316L0.456011 9.50796C0.286563 9.3867 0.160568 9.21419 0.0966078 9.01588C0.0326474 8.81757 0.034107 8.60396 0.100772 8.40654C0.167436 8.20912 0.295776 8.03836 0.466866 7.91942C0.637955 7.80048 0.842737 7.73967 1.05101 7.74596H7.61301C7.82343 7.74791 8.0291 7.68342 8.20075 7.56169C8.37239 7.43996 8.50126 7.26719 8.56901 7.06796L10.589 0.949961Z" fill="#E8B923"/>
</svg>
