<svg width="26" height="26" viewBox="0 0 26 26" fill="none" xmlns="http://www.w3.org/2000/svg">
<path d="M10.104 9.79301H3.42001C2.81915 9.78201 2.23345 9.982 1.7648 10.3582C1.29615 10.7344 0.974217 11.263 0.855014 11.852C0.794978 12.2067 0.813003 12.5703 0.907832 12.9174C1.00266 13.2644 1.17201 13.5866 1.40409 13.8615C1.63618 14.1365 1.9254 14.3575 2.25163 14.5092C2.57785 14.6609 2.93324 14.7397 3.29301 14.74H10.107C10.764 14.74 11.394 14.479 11.8585 14.0145C12.323 13.55 12.584 12.92 12.584 12.263C12.584 11.6061 12.323 10.976 11.8585 10.5115C11.394 10.047 10.764 9.78601 10.107 9.78601L10.104 9.79301Z" fill="white"/>
<path d="M13.531 0.300023C10.906 0.293785 8.34721 1.12314 6.22499 2.66802C6.10697 2.75357 6.02564 2.88054 5.99726 3.02351C5.96889 3.16648 5.99558 3.3149 6.07199 3.43902L8.077 6.69202C8.1188 6.75964 8.17409 6.81792 8.23943 6.8632C8.30477 6.90848 8.37875 6.93979 8.45674 6.95518C8.53474 6.97058 8.61506 6.96971 8.69271 6.95265C8.77035 6.93559 8.84364 6.90269 8.90799 6.85602C9.99515 6.06923 11.2786 5.59812 12.6166 5.49469C13.9546 5.39125 15.2952 5.65953 16.4903 6.26989C17.6855 6.88026 18.6888 7.80898 19.3894 8.95355C20.0901 10.0981 20.4609 11.414 20.4609 12.756C20.4609 14.098 20.0901 15.4139 19.3894 16.5585C18.6888 17.7031 17.6855 18.6318 16.4903 19.2422C15.2952 19.8525 13.9546 20.1208 12.6166 20.0174C11.2786 19.9139 9.99515 19.4428 8.90799 18.656C8.84364 18.6094 8.77035 18.5765 8.69271 18.5594C8.61506 18.5423 8.53474 18.5415 8.45674 18.5569C8.37875 18.5723 8.30477 18.6036 8.23943 18.6488C8.17409 18.6941 8.1188 18.7524 8.077 18.82L6.07199 22.074C5.99558 22.1981 5.96889 22.3466 5.99726 22.4895C6.02564 22.6325 6.10697 22.7595 6.22499 22.845C7.81636 23.9967 9.65758 24.7556 11.5983 25.0598C13.5389 25.364 15.524 25.2048 17.3915 24.5953C19.2589 23.9858 20.9557 22.9433 22.3432 21.5528C23.7308 20.1623 24.7698 18.4633 25.3754 16.5946C25.9809 14.7259 26.1359 12.7405 25.8277 10.8005C25.5194 8.86044 24.7566 7.02083 23.6016 5.43188C22.4466 3.84293 20.9322 2.5497 19.182 1.65781C17.4317 0.765918 15.4954 0.300657 13.531 0.300023Z" fill="currentColor"/>
</svg>
