<svg width="26" height="23" viewBox="0 0 26 23" fill="none" xmlns="http://www.w3.org/2000/svg">
<path d="M24.032 0.761963H2.051C1.56337 0.764269 1.0961 0.957775 0.749612 1.3009C0.403122 1.64402 0.205064 2.10938 0.197998 2.59696V3.34396C0.197733 3.83577 0.392778 4.30755 0.740254 4.65559C1.08773 5.00362 1.5592 5.19943 2.051 5.19996H24.031C24.5219 5.19943 24.9926 5.00431 25.34 4.65736C25.6873 4.3104 25.8829 3.8399 25.884 3.34896V2.59996C25.8777 2.11203 25.6801 1.64606 25.3338 1.30232C24.9874 0.958579 24.52 0.764543 24.032 0.761963Z" fill="#2F58E2"/>
<path d="M24.032 9.16699H2.051C1.56337 9.1693 1.0961 9.3628 0.749611 9.70593C0.403122 10.0491 0.205064 10.5144 0.197998 11.002L0.197998 11.754C0.198527 12.2453 0.393924 12.7163 0.741314 13.0637C1.0887 13.4111 1.55971 13.6065 2.051 13.607H24.031C24.5223 13.6065 24.9933 13.4111 25.3407 13.0637C25.6881 12.7163 25.8835 12.2453 25.884 11.754V11.005C25.8777 10.5171 25.6801 10.0511 25.3338 9.70735C24.9874 9.36361 24.52 9.16957 24.032 9.16699Z" fill="#2F58E2"/>
<path d="M2.051 17.572H12.115C12.3585 17.572 12.5996 17.62 12.8246 17.7133C13.0495 17.8065 13.2539 17.9432 13.426 18.1155C13.5981 18.2877 13.7345 18.4922 13.8275 18.7173C13.9205 18.9423 13.9683 19.1835 13.968 19.427V20.161C13.968 20.6507 13.7739 21.1205 13.4283 21.4674C13.0827 21.8143 12.6137 22.0102 12.124 22.012H2.049C1.80575 22.012 1.56489 21.9641 1.34019 21.8709C1.11549 21.7778 0.911344 21.6413 0.739437 21.4692C0.567529 21.2971 0.431227 21.0928 0.338324 20.868C0.24542 20.6432 0.197736 20.4023 0.197999 20.159V19.425C0.197999 18.9336 0.393225 18.4623 0.74073 18.1148C1.08824 17.7672 1.55955 17.572 2.051 17.572V17.572Z" fill="#2F58E2"/>
</svg>
